<svg width="39" height="37" viewBox="0 0 39 37" fill="none" xmlns="http://www.w3.org/2000/svg">
<g clip-path="url(#clip0_2078_6)">
<path d="M36 18.5C36 28.165 28.165 36 18.5 36C8.83502 36 1 28.165 1 18.5C1 8.83502 8.83502 1 18.5 1C28.165 1 36 8.83502 36 18.5Z" stroke="#EFCFAD" stroke-width="2"/>
<path d="M36.093 12.7722C35.569 11.1616 34.832 9.64832 33.9125 8.26562L17.7188 25.1324L17.7513 27.0095L18.5157 27.0046L36.093 12.7722Z" fill="#A4907D"/>
<path d="M39 6C38.7631 4.77238 36.5 4.0001 36.5 4.0001C36.0497 3.55499 33.4503 6.05569 33 6.5008L18.073 22.0005L11.5 14.5005C11.049 14.0554 9.95066 13.5554 9.5 14.0005L7.36115 15.4298C6.91087 15.8745 6.91087 16.596 7.36115 17.0408L17.1214 26.6834C17.3815 26.9405 17.7341 27.0441 18.073 27.0041C18.4119 27.0437 18.7646 26.9405 19.0247 26.6834L37.0296 8.89449C37.4799 8.44938 39.2591 7.34266 39 6Z" fill="white"/>
<g filter="url(#filter0_d_2078_6)">
<path d="M19.0243 26.682L37.0292 8.89313C38.5 7.99972 39.4503 6.44483 39 5.99972C38.5497 5.55461 36.4909 6.74972 36.4909 6.74972L17.9698 24.9667L7.76964 15.024L7.36116 15.4281C6.91087 15.8728 6.91087 16.5943 7.36116 17.0391L17.121 26.682C17.3811 26.9391 17.7337 27.0427 18.0727 27.0028C18.4116 27.0427 18.7642 26.9395 19.0243 26.682Z" fill="#EFCFAD"/>
<path d="M18.6729 26.3263L18.6725 26.3267C18.5294 26.4683 18.3318 26.5299 18.1312 26.5062L18.0727 26.4993L18.0141 26.5062C17.8138 26.5298 17.6159 26.4682 17.4725 26.3264L17.4724 26.3263L7.71257 16.6834L7.71251 16.6833C7.46041 16.4343 7.46041 16.0328 7.71251 15.7838L7.71277 15.7836L7.7722 15.7248L17.6208 25.3247L17.9714 25.6664L18.3204 25.3231L36.7948 7.15208C36.8034 7.14728 36.8129 7.14197 36.8233 7.13617C36.8775 7.10601 36.9562 7.063 37.0521 7.01258C37.2451 6.91123 37.5036 6.78232 37.7725 6.66783C38.0465 6.55116 38.308 6.45956 38.5127 6.42008C38.5459 6.41367 38.5752 6.40914 38.6006 6.40606C38.6006 6.40633 38.6005 6.4066 38.6005 6.40687C38.5694 6.54841 38.4805 6.75491 38.3171 7.00386C37.9931 7.49726 37.4421 8.05732 36.7696 8.46579L36.7195 8.49624L36.6778 8.53745L18.6729 26.3263ZM38.7254 6.40345C38.7253 6.40347 38.7247 6.40335 38.7234 6.40302L38.7254 6.40345ZM38.6125 6.30167C38.6115 6.29814 38.6113 6.29613 38.6114 6.29601C38.6116 6.29588 38.6121 6.29765 38.6125 6.30167Z" stroke="black"/>
</g>
</g>
<defs>
<filter id="filter0_d_2078_6" x="3.02344" y="5.90039" width="40.0898" height="29.1113" filterUnits="userSpaceOnUse" color-interpolation-filters="sRGB">
<feFlood flood-opacity="0" result="BackgroundImageFix"/>
<feColorMatrix in="SourceAlpha" type="matrix" values="0 0 0 0 0 0 0 0 0 0 0 0 0 0 0 0 0 0 127 0" result="hardAlpha"/>
<feOffset dy="4"/>
<feGaussianBlur stdDeviation="2"/>
<feComposite in2="hardAlpha" operator="out"/>
<feColorMatrix type="matrix" values="0 0 0 0 0 0 0 0 0 0 0 0 0 0 0 0 0 0 0.25 0"/>
<feBlend mode="normal" in2="BackgroundImageFix" result="effect1_dropShadow_2078_6"/>
<feBlend mode="normal" in="SourceGraphic" in2="effect1_dropShadow_2078_6" result="shape"/>
</filter>
<clipPath id="clip0_2078_6">
<rect width="39" height="37" fill="white"/>
</clipPath>
</defs>
</svg>
